HIERARCHY
ROOT Hips
{
	OFFSET 0.000000 83.214638 0.000000
	CHANNELS 6 Xposition Yposition Zposition Xrotation Yrotation Zrotation
	JOINT Pelvis
	{
		OFFSET 0.000000 0.000000 0.000000
		CHANNELS 3 Xrotation Yrotation Zrotation
		JOINT LeftUpLeg
		{
			OFFSET 8.479700 -4.795502 -0.379100
			CHANNELS 3 Xrotation Yrotation Zrotation
			JOINT LeftLeg
			{
				OFFSET 0.024144 -32.555107 0.112900
				CHANNELS 3 Xrotation Yrotation Zrotation
				JOINT LeftFoot
				{
					OFFSET -0.024144 -32.638630 -3.012600
					CHANNELS 3 Xrotation Yrotation Zrotation
					JOINT LeftToeBase
					{
						OFFSET 0.970200 -13.225400 11.864200
						CHANNELS 3 Xrotation Yrotation Zrotation
						End Site
						{
							OFFSET 0.000000 12.319262 0.000000
						}
					}
					JOINT LFootTongue
					{
						OFFSET 1.142400 -1.059800 6.665200
						CHANNELS 3 Xrotation Yrotation Zrotation
						End Site
						{
							OFFSET 0.000000 12.319262 0.000000
						}
					}
				}
				JOINT LeftPantLeg
				{
					OFFSET 0.918482 -16.533964 -2.284700
					CHANNELS 3 Xrotation Yrotation Zrotation
					End Site
					{
						OFFSET 0.350399 24.744368 0.000000
					}
				}
			}
		}
		JOINT RightUpLeg
		{
			OFFSET -8.479700 -4.795502 -0.379100
			CHANNELS 3 Xrotation Yrotation Zrotation
			JOINT RightLeg
			{
				OFFSET -0.023144 -32.555092 0.112900
				CHANNELS 3 Xrotation Yrotation Zrotation
				JOINT RightFoot
				{
					OFFSET 0.023144 -32.638641 -3.012700
					CHANNELS 3 Xrotation Yrotation Zrotation
					JOINT RightToeBase
					{
						OFFSET -0.970200 -13.225400 11.864200
						CHANNELS 3 Xrotation Yrotation Zrotation
						End Site
						{
							OFFSET 0.000000 12.319244 0.000000
						}
					}
					JOINT RFootTongue
					{
						OFFSET -1.142200 -1.059800 6.665200
						CHANNELS 3 Xrotation Yrotation Zrotation
						End Site
						{
							OFFSET 0.000000 12.319243 0.000000
						}
					}
				}
				JOINT RightPantLeg
				{
					OFFSET -0.919482 -16.533978 -2.284800
					CHANNELS 3 Xrotation Yrotation Zrotation
					End Site
					{
						OFFSET -0.350400 24.744419 0.000000
					}
				}
			}
		}
	}
	JOINT Spine
	{
		OFFSET 0.000000 7.722000 1.166200
		CHANNELS 3 Xrotation Yrotation Zrotation
		JOINT Spine1
		{
			OFFSET 0.000000 12.024101 0.248800
			CHANNELS 3 Xrotation Yrotation Zrotation
			JOINT Spine2
			{
				OFFSET 0.000000 11.502998 -0.491200
				CHANNELS 3 Xrotation Yrotation Zrotation
				JOINT Neck
				{
					OFFSET 0.000000 18.430702 -3.123100
					CHANNELS 3 Xrotation Yrotation Zrotation
					JOINT Head
					{
						OFFSET 0.000000 9.051102 1.034000
						CHANNELS 3 Xrotation Yrotation Zrotation
						JOINT HairB
						{
							OFFSET 0.208400 24.786102 24.822300
							CHANNELS 3 Xrotation Yrotation Zrotation
							End Site
							{
								OFFSET 0.000000 32.263779 0.000000
							}
						}
						JOINT HairA
						{
							OFFSET -7.081100 24.428299 23.196600
							CHANNELS 3 Xrotation Yrotation Zrotation
							End Site
							{
								OFFSET 0.000000 32.263779 0.000000
							}
						}
						JOINT Hat
						{
							OFFSET 16.728800 15.048294 -15.439601
							CHANNELS 3 Xrotation Yrotation Zrotation
							End Site
							{
								OFFSET 0.000000 32.263779 0.000000
							}
						}
					}
				}
				JOINT LeftShoulder
				{
					OFFSET 6.197800 13.665199 -4.064700
					CHANNELS 3 Xrotation Yrotation Zrotation
					JOINT LeftArm
					{
						OFFSET 7.778100 -0.187103 -1.709300
						CHANNELS 3 Xrotation Yrotation Zrotation
						JOINT LeftForeArm
						{
							OFFSET 22.049376 0.000000 0.000000
							CHANNELS 3 Xrotation Yrotation Zrotation
							JOINT LeftHand
							{
								OFFSET 23.009392 0.000000 0.000000
								CHANNELS 3 Xrotation Yrotation Zrotation
								JOINT LeftHandThumb1
								{
									OFFSET 3.507191 -2.063065 3.133727
									CHANNELS 3 Xrotation Yrotation Zrotation
									JOINT LeftHandThumb2
									{
										OFFSET 3.101337 -1.790558 1.790558
										CHANNELS 3 Xrotation Yrotation Zrotation
										JOINT LeftHandThumb3
										{
											OFFSET 3.058640 -1.765907 1.765906
											CHANNELS 3 Xrotation Yrotation Zrotation
											End Site
											{
												OFFSET -0.415260 3.926476 -0.049563
											}
										}
									}
								}
								JOINT LeftHandIndex1
								{
									OFFSET 11.334419 -0.901459 3.706815
									CHANNELS 3 Xrotation Yrotation Zrotation
									JOINT LeftHandIndex2
									{
										OFFSET 3.283112 0.000000 0.000000
										CHANNELS 3 Xrotation Yrotation Zrotation
										JOINT LeftHandIndex3
										{
											OFFSET 3.323853 0.000000 0.000000
											CHANNELS 3 Xrotation Yrotation Zrotation
											End Site
											{
												OFFSET -1.135597 3.097809 0.402452
											}
										}
									}
								}
								JOINT LeftHandMiddle1
								{
									OFFSET 11.335861 0.000000 0.000000
									CHANNELS 3 Xrotation Yrotation Zrotation
									JOINT LeftHandMiddle2
									{
										OFFSET 3.410492 0.000000 0.000000
										CHANNELS 3 Xrotation Yrotation Zrotation
										JOINT LeftHandMiddle3
										{
											OFFSET 3.312172 0.000000 0.000000
											CHANNELS 3 Xrotation Yrotation Zrotation
											End Site
											{
												OFFSET -1.150200 3.080154 0.400270
											}
										}
									}
								}
								JOINT LeftHandRing1
								{
									OFFSET 11.514786 -0.013176 -3.003090
									CHANNELS 3 Xrotation Yrotation Zrotation
									JOINT LeftHandRing2
									{
										OFFSET 3.053307 0.000000 0.000000
										CHANNELS 3 Xrotation Yrotation Zrotation
										JOINT LeftHandRing3
										{
											OFFSET 3.295807 0.000000 0.000000
											CHANNELS 3 Xrotation Yrotation Zrotation
											End Site
											{
												OFFSET -1.281006 3.013344 0.375733
											}
										}
									}
								}
								JOINT LeftHandPinky1
								{
									OFFSET 10.518692 -0.960396 -5.730441
									CHANNELS 3 Xrotation Yrotation Zrotation
									JOINT LeftHandPinky2
									{
										OFFSET 2.861649 0.000000 0.000000
										CHANNELS 3 Xrotation Yrotation Zrotation
										JOINT LeftHandPinky3
										{
											OFFSET 2.863380 0.000000 0.000000
											CHANNELS 3 Xrotation Yrotation Zrotation
											End Site
											{
												OFFSET -0.843597 2.711159 0.369971
											}
										}
									}
								}
							}
							JOINT LSleeve
							{
								OFFSET 6.676277 -0.344902 -1.011730
								CHANNELS 3 Xrotation Yrotation Zrotation
								End Site
								{
									OFFSET 0.000000 14.885353 0.000000
								}
							}
						}
					}
				}
				JOINT RightShoulder
				{
					OFFSET -6.197800 13.665199 -4.064700
					CHANNELS 3 Xrotation Yrotation Zrotation
					JOINT RightArm
					{
						OFFSET -7.778100 -0.187103 -1.709300
						CHANNELS 3 Xrotation Yrotation Zrotation
						JOINT RightForeArm
						{
							OFFSET -22.049376 0.000000 0.000000
							CHANNELS 3 Xrotation Yrotation Zrotation
							JOINT RightHand
							{
								OFFSET -23.009392 0.000000 0.000000
								CHANNELS 3 Xrotation Yrotation Zrotation
								JOINT RightHandThumb1
								{
									OFFSET -3.507191 -2.063065 3.133727
									CHANNELS 3 Xrotation Yrotation Zrotation
									JOINT RightHandThumb2
									{
										OFFSET -3.101337 -1.790558 1.790558
										CHANNELS 3 Xrotation Yrotation Zrotation
										JOINT RightHandThumb3
										{
											OFFSET -3.058640 -1.765907 1.765906
											CHANNELS 3 Xrotation Yrotation Zrotation
											End Site
											{
												OFFSET 0.415260 3.926476 -0.049563
											}
										}
									}
								}
								JOINT RightHandIndex1
								{
									OFFSET -11.334419 -0.901459 3.706815
									CHANNELS 3 Xrotation Yrotation Zrotation
									JOINT RightHandIndex2
									{
										OFFSET -3.283112 0.000000 0.000000
										CHANNELS 3 Xrotation Yrotation Zrotation
										JOINT RightHandIndex3
										{
											OFFSET -3.323853 0.000000 0.000000
											CHANNELS 3 Xrotation Yrotation Zrotation
											End Site
											{
												OFFSET 1.135597 3.097809 0.402452
											}
										}
									}
								}
								JOINT RightHandMiddle1
								{
									OFFSET -11.335861 0.000000 0.000000
									CHANNELS 3 Xrotation Yrotation Zrotation
									JOINT RightHandMiddle2
									{
										OFFSET -3.410492 0.000000 0.000000
										CHANNELS 3 Xrotation Yrotation Zrotation
										JOINT RightHandMiddle3
										{
											OFFSET -3.312172 0.000000 0.000000
											CHANNELS 3 Xrotation Yrotation Zrotation
											End Site
											{
												OFFSET 1.150200 3.080154 0.400270
											}
										}
									}
								}
								JOINT RightHandRing1
								{
									OFFSET -11.514786 -0.013176 -3.003090
									CHANNELS 3 Xrotation Yrotation Zrotation
									JOINT RightHandRing2
									{
										OFFSET -3.053307 0.000000 0.000000
										CHANNELS 3 Xrotation Yrotation Zrotation
										JOINT RightHandRing3
										{
											OFFSET -3.295807 0.000000 0.000000
											CHANNELS 3 Xrotation Yrotation Zrotation
											End Site
											{
												OFFSET 1.281006 3.013344 0.375733
											}
										}
									}
								}
								JOINT RightHandPinky1
								{
									OFFSET -10.518692 -0.960396 -5.730441
									CHANNELS 3 Xrotation Yrotation Zrotation
									JOINT RightHandPinky2
									{
										OFFSET -2.861649 0.000000 0.000000
										CHANNELS 3 Xrotation Yrotation Zrotation
										JOINT RightHandPinky3
										{
											OFFSET -2.863380 0.000000 0.000000
											CHANNELS 3 Xrotation Yrotation Zrotation
											End Site
											{
												OFFSET 0.843597 2.711159 0.369971
											}
										}
									}
								}
							}
							JOINT RSleeve
							{
								OFFSET -6.676277 -0.344902 -1.011730
								CHANNELS 3 Xrotation Yrotation Zrotation
								End Site
								{
									OFFSET 0.000000 14.885353 0.000000
								}
							}
						}
					}
				}
				JOINT Backpack
				{
					OFFSET 0.000000 -2.471497 36.677502
					CHANNELS 3 Xrotation Yrotation Zrotation
					End Site
					{
						OFFSET 0.000000 20.427315 0.000000
					}
				}
				JOINT Hood
				{
					OFFSET 0.000000 18.754097 -10.431000
					CHANNELS 3 Xrotation Yrotation Zrotation
					JOINT Hood1
					{
						OFFSET 0.000000 -5.011002 -7.685901
						CHANNELS 3 Xrotation Yrotation Zrotation
						End Site
						{
							OFFSET 0.000000 9.175140 0.000000
						}
					}
				}
				JOINT LHoodieString
				{
					OFFSET 5.250500 16.397697 3.089900
					CHANNELS 3 Xrotation Yrotation Zrotation
					JOINT LHoodieString1
					{
						OFFSET 0.257700 -6.364304 3.694600
						CHANNELS 3 Xrotation Yrotation Zrotation
						JOINT LHoodieString2
						{
							OFFSET 0.000000 -9.643799 2.679100
							CHANNELS 3 Xrotation Yrotation Zrotation
							End Site
							{
								OFFSET 0.000000 10.009018 0.000000
							}
						}
					}
				}
				JOINT RHoodieString
				{
					OFFSET -5.250500 16.397697 3.089900
					CHANNELS 3 Xrotation Yrotation Zrotation
					JOINT RHoodieString1
					{
						OFFSET -0.257700 -6.364304 3.694600
						CHANNELS 3 Xrotation Yrotation Zrotation
						JOINT RHoodieString2
						{
							OFFSET 0.000000 -9.643799 2.679100
							CHANNELS 3 Xrotation Yrotation Zrotation
							End Site
							{
								OFFSET 0.000000 10.009018 0.000000
							}
						}
					}
				}
			}
			JOINT LBackpack_Strap
			{
				OFFSET 15.223200 -7.719803 -6.610900
				CHANNELS 3 Xrotation Yrotation Zrotation
				End Site
				{
					OFFSET 0.000000 16.040596 0.000000
				}
			}
			JOINT RBackpack_Strap
			{
				OFFSET -15.223000 -7.719803 -6.610900
				CHANNELS 3 Xrotation Yrotation Zrotation
				End Site
				{
					OFFSET 0.000000 16.040596 0.000000
				}
			}
		}
	}
	JOINT BoyFacialAnim_Joint
	{
		OFFSET 1.000000 -82.208099 -1.550900
		CHANNELS 3 Xrotation Yrotation Zrotation
		End Site
		{
			OFFSET 0.000000 30.012791 0.000000
		}
	}
}
MOTION
Frames: 4
Frame Time: 0.033333
-1.335951 71.208931 0.574137 -21.314321 -23.923953 -7.437351 -0.000001 0.000000 -0.000000 -24.293955 7.796593 22.824465 31.998917 -3.284165 9.614002 -2.858533 1.328198 -23.162963 -0.000001 -0.000000 -0.000000 -0.000001 -0.000000 -0.000000 0.000000 0.000000 -0.000001 -12.197270 -10.140867 -11.168475 64.571652 -3.709278 -3.112137 -33.472008 -2.181705 7.502038 -0.000000 -0.000002 0.000000 -0.000000 -0.000002 0.000000 0.000002 -0.000000 -0.000001 15.604124 -0.530742 10.138077 8.899371 -0.462480 5.310111 8.916991 -0.327763 5.278798 7.890667 4.604815 -2.238379 -25.284479 23.799005 1.344111 -0.000001 0.000000 0.000001 -0.000001 0.000000 0.000001 -0.000001 0.000000 0.000001 2.494455 -23.174975 -5.832181 -31.851494 51.009690 -57.364047 0.000004 -107.825020 0.000007 -79.846612 -1.588679 5.834678 -9.889773 -1.244560 -17.571061 3.939056 7.948677 0.746826 -0.000003 -0.000004 -0.000003 4.745600 6.697194 -60.480690 3.793163 6.152376 -63.280425 -0.000003 0.000000 -0.000000 4.366877 6.407561 -68.794157 2.689041 5.461669 -52.400282 0.000003 -0.000001 -0.000005 4.077480 6.455222 -54.383496 2.071565 4.926998 -45.588050 -0.000000 0.000001 -0.000002 6.339659 7.979096 -55.295716 1.045234 -0.430348 -32.176359 0.000001 -0.000002 -0.000001 -0.000000 -0.000001 0.000001 -0.171227 -4.197524 -1.673384 14.202584 42.913631 35.164023 0.000020 125.503005 -0.000027 18.339743 -33.582616 -7.047353 -1.501043 -15.451211 10.098621 8.791058 -19.386775 0.589214 0.000001 0.000002 0.000001 0.262132 -3.264317 46.906707 1.300443 -4.053799 35.558832 -0.000002 -0.000003 0.000003 3.047042 -7.419853 28.005642 1.811500 -4.685121 42.259316 0.000003 -0.000001 -0.000004 4.560624 -11.258203 24.721791 1.226139 -3.948110 34.494398 0.000001 0.000003 0.000004 1.025510 -5.903624 10.831167 1.427813 -4.225894 37.323459 -0.000001 -0.000003 0.000003 0.000000 -0.000002 0.000002 0.000000 -0.000002 -0.000000 0.000000 -0.000002 -0.000000 0.000000 -0.000002 -0.000000 0.000000 -0.000002 -0.000000 0.000000 -0.000002 -0.000000 0.000000 -0.000001 0.000001 0.000000 -0.000002 -0.000000 0.000000 -0.000002 -0.000000 0.000000 -0.000001 0.000001 0.000000 0.000001 0.000001 0.000000 0.000001 0.000001 -0.000001 0.000000 -0.000000 
-1.144321 71.326439 0.946939 -21.393336 -24.328622 -7.672338 -0.000000 0.000002 0.000000 -24.165404 8.008943 22.946622 32.330608 -3.060019 9.603594 -2.807460 1.328845 -22.988422 -0.000001 0.000000 0.000000 -0.000001 0.000000 0.000000 0.000000 -0.000001 0.000001 -11.820623 -9.996893 -11.317320 64.094966 -3.298684 -3.144945 -33.320033 -2.227911 7.643709 0.000000 -0.000000 -0.000000 0.000000 -0.000000 -0.000000 -0.000002 0.000001 0.000000 15.567611 -0.553545 10.348238 8.881109 -0.483487 5.425235 8.899744 -0.348348 5.393295 7.930685 4.752557 -1.961009 -24.779460 24.575301 1.641871 -0.000001 0.000000 -0.000002 -0.000001 0.000000 -0.000002 -0.000001 0.000000 -0.000002 2.459628 -22.872955 -5.833594 -30.718673 51.451989 -58.393917 0.000002 -107.788697 -0.000007 -79.804593 -1.677717 5.557024 -9.977919 -1.191409 -17.954038 3.939061 7.948708 0.746797 -0.000004 -0.000002 -0.000002 4.622453 6.630965 -60.367281 3.772752 6.142120 -63.089692 -0.000003 0.000004 -0.000003 4.323750 6.390688 -68.572907 2.714511 5.481129 -52.667578 0.000001 0.000000 -0.000001 4.032277 6.426709 -54.264446 2.071771 4.927227 -45.590543 0.000001 -0.000004 -0.000001 6.337032 7.978941 -55.276800 1.039093 -0.440115 -32.080825 0.000001 -0.000004 -0.000001 0.000001 0.000001 0.000001 -0.154140 -4.123047 -1.528322 14.239087 42.684314 34.971914 0.000031 125.535544 -0.000015 18.394417 -33.481536 -6.577157 -1.514352 -15.440131 10.091482 8.676598 -19.109870 0.563787 -0.000000 -0.000000 0.000000 -0.039212 -2.811239 44.582117 1.151694 -3.837800 33.398078 0.000000 0.000004 0.000001 2.891881 -7.005532 28.845296 1.800480 -4.673031 42.124147 0.000000 -0.000002 -0.000004 4.426371 -10.779475 25.288460 1.201578 -3.912188 34.135837 -0.000000 -0.000000 -0.000001 0.943759 -5.619765 10.510591 1.413711 -4.207406 37.131576 -0.000001 -0.000001 0.000000 0.000000 0.000001 0.000005 0.000000 0.000001 -0.000001 0.000000 0.000001 -0.000001 0.000000 0.000001 -0.000001 0.000000 0.000001 -0.000001 0.000000 0.000001 -0.000001 0.000001 0.000000 -0.000001 0.000000 0.000001 -0.000001 0.000000 0.000001 -0.000001 0.000001 0.000000 -0.000001 0.000001 -0.000000 0.000001 0.000001 -0.000000 0.000001 -0.000000 0.000002 0.000000 
-0.940954 71.682640 1.360628 -20.892454 -24.774230 -7.664121 -0.000000 0.000000 -0.000001 -24.046963 8.099409 22.812371 32.277070 -2.421995 9.596983 -3.662364 1.489719 -22.854445 -0.000001 0.000001 0.000000 -0.000001 0.000001 0.000000 0.000001 0.000000 0.000000 -11.613615 -9.777843 -11.321792 62.891159 -3.082710 -3.176024 -32.762543 -2.285054 7.895203 -0.000000 0.000000 0.000000 -0.000000 0.000000 0.000000 -0.000002 -0.000000 0.000003 15.188119 -0.575650 10.387992 8.691997 -0.486320 5.463241 8.710443 -0.351226 5.432743 7.953984 4.844635 -1.666336 -24.448099 25.019922 2.017858 -0.000000 0.000000 0.000001 -0.000000 0.000000 0.000001 -0.000000 0.000000 0.000001 2.432365 -22.632494 -5.833881 -29.671025 51.776901 -58.928673 -0.000012 -107.832069 0.000002 -79.511653 -1.601988 5.454184 -10.117201 -1.189003 -18.297317 3.939056 7.948708 0.746815 -0.000002 0.000003 0.000006 4.500959 6.562432 -60.364543 3.744088 6.127562 -62.821478 -0.000001 0.000001 -0.000002 4.280525 6.373588 -68.434083 2.735339 5.496862 -52.885239 -0.000001 0.000000 -0.000005 3.993241 6.401317 -54.179297 2.074533 4.929908 -45.622573 -0.000002 0.000001 -0.000000 6.325767 7.978142 -55.195571 1.036015 -0.444992 -32.033208 -0.000000 0.000003 0.000000 -0.000000 -0.000000 0.000001 -0.126998 -4.004742 -1.292441 14.657260 42.522056 34.365260 -0.000001 125.582932 -0.000007 17.836856 -33.516619 -6.403504 -1.614401 -15.371539 9.870517 8.400896 -18.438533 0.503342 -0.000002 0.000001 0.000001 0.055585 -2.864863 43.952312 1.064921 -3.703095 32.078274 0.000000 0.000000 -0.000000 2.797788 -6.692549 29.931651 1.734004 -4.598743 41.301853 -0.000002 -0.000002 -0.000004 4.249945 -10.269498 25.755691 1.113458 -3.779280 32.822167 -0.000002 -0.000001 0.000002 0.852304 -5.324568 10.041529 1.352273 -4.125230 36.286025 0.000001 0.000001 0.000000 -0.000000 -0.000004 0.000002 -0.000000 -0.000001 -0.000001 -0.000000 -0.000001 -0.000001 -0.000000 -0.000001 -0.000001 -0.000000 -0.000001 -0.000001 -0.000000 -0.000001 -0.000001 -0.000000 -0.000003 -0.000001 -0.000000 -0.000001 -0.000001 -0.000000 -0.000001 -0.000001 -0.000000 -0.000003 -0.000001 0.000001 0.000001 0.000000 0.000001 0.000001 0.000000 -0.000000 0.000000 -0.000001 
-0.701470 72.250870 1.803688 -19.987451 -25.277769 -7.433082 -0.000001 -0.000002 0.000000 -23.812994 8.216773 22.389628 31.777397 -1.473804 9.643463 -5.219054 1.773073 -22.742230 -0.000000 0.000000 -0.000000 -0.000000 0.000000 -0.000000 -0.000001 0.000001 -0.000002 -11.472341 -9.464100 -11.275857 61.020698 -2.908514 -3.219087 -31.828914 -2.333275 8.203166 0.000000 -0.000002 0.000000 0.000000 -0.000002 0.000000 0.000002 0.000003 -0.000000 14.563628 -0.615268 10.357486 8.376372 -0.487630 5.467844 8.394246 -0.352029 5.439800 7.948639 4.917098 -1.419136 -24.362996 25.236390 2.571505 0.000000 -0.000001 0.000001 0.000000 -0.000001 0.000001 0.000000 -0.000001 0.000001 2.404904 -22.465537 -5.800107 -28.722745 51.971353 -59.150135 0.000041 -107.973290 0.000057 -78.995195 -1.408803 5.522943 -10.285417 -1.232064 -18.561526 3.939052 7.948694 0.746822 -0.000004 0.000001 0.000003 4.426939 6.517771 -60.499029 3.731610 6.121164 -62.704497 -0.000003 -0.000000 -0.000002 4.247225 6.360433 -68.402268 2.749489 5.507528 -53.032912 -0.000001 -0.000003 -0.000000 3.977176 6.391188 -54.132869 2.074310 4.929701 -45.620094 0.000000 0.000000 -0.000000 6.302946 7.976548 -55.031131 1.034655 -0.447184 -32.011792 0.000000 0.000004 0.000000 0.000000 0.000002 -0.000000 -0.102041 -3.895559 -1.066831 15.375861 42.544196 33.290987 0.000026 125.633980 -0.000023 16.806058 -33.799772 -6.593490 -1.804187 -15.238389 9.457441 8.093486 -17.682643 0.437118 -0.000001 0.000001 -0.000000 0.441431 -3.338395 45.239188 1.029728 -3.646408 31.528928 -0.000001 0.000005 0.000003 2.801393 -6.558953 31.087743 1.599519 -4.441492 39.595580 0.000001 0.000000 -0.000000 4.075606 -9.824437 26.078844 0.988808 -3.579014 30.879859 -0.000001 -0.000001 -0.000003 0.776841 -5.016784 9.769908 1.265847 -4.005154 35.066943 -0.000001 0.000000 0.000000 0.000001 0.000000 -0.000000 -0.000000 -0.000002 0.000001 -0.000000 -0.000002 0.000001 -0.000000 -0.000002 0.000001 -0.000000 -0.000002 0.000001 -0.000000 -0.000002 -0.000001 -0.000000 0.000000 -0.000001 -0.000000 -0.000002 0.000001 -0.000000 -0.000002 -0.000001 -0.000000 0.000000 -0.000001 0.000000 -0.000002 0.000001 0.000000 -0.000002 0.000001 -0.000001 -0.000002 0.000000 
